<svg height="512" viewBox="0 0 512 512" width="512" xmlns="http://www.w3.org/2000/svg"><path d="m466.9 89.54-208-81a8.057 8.057 0 0 0 -5.8 0l-208 81a8 8 0 0 0 -5.1 7.46v319a8 8 0 0 0 5.1 7.46l208 81a8.057 8.057 0 0 0 5.8 0l208-81a8 8 0 0 0 5.1-7.46v-319a8 8 0 0 0 -5.1-7.46zm-210.9-64.96 191.5 74.58-74.81 61.22-113.94-41.66a8 8 0 0 0 -5.5 0l-113.94 41.66-74.81-61.22zm112 151.12v156.96l-104-38.02v-156.97zm-120-38.03v156.97l-104 38.02v-156.96zm0 347.63-192-74.77v-297.65l72 58.91v171.11a8 8 0 0 0 5.25 7.51l114.75 41.95zm8-107.05-95.05-34.75 95.05-34.75 95.05 34.75zm200 32.28-192 74.77v-92.94l114.75-41.95a8 8 0 0 0 5.25-7.51v-171.11l72-58.91z"/></svg>